<svg width="11" height="11" viewBox="0 0 11 11" fill="none" xmlns="http://www.w3.org/2000/svg">
<path d="M2.4292 2.11376C2.33717 2.11376 2.2489 2.15088 2.18382 2.21694C2.11874 2.28301 2.08217 2.37262 2.08217 2.46605C2.08217 2.55949 2.11874 2.64909 2.18382 2.71516C2.2489 2.78123 2.33717 2.81835 2.4292 2.81835H7.28761C7.37965 2.81835 7.46792 2.78123 7.533 2.71516C7.59808 2.64909 7.63464 2.55949 7.63464 2.46605C7.63464 2.37262 7.59808 2.28301 7.533 2.21694C7.46792 2.15088 7.37965 2.11376 7.28761 2.11376H2.4292ZM2.08217 4.57981C2.08217 4.48638 2.11874 4.39677 2.18382 4.3307C2.2489 4.26463 2.33717 4.22752 2.4292 4.22752H5.20544C5.29747 4.22752 5.38574 4.26463 5.45082 4.3307C5.5159 4.39677 5.55246 4.48638 5.55246 4.57981C5.55246 4.67324 5.5159 4.76285 5.45082 4.82892C5.38574 4.89499 5.29747 4.9321 5.20544 4.9321H2.4292C2.33717 4.9321 2.2489 4.89499 2.18382 4.82892C2.11874 4.76285 2.08217 4.67324 2.08217 4.57981ZM2.4292 6.34128C2.33717 6.34128 2.2489 6.37839 2.18382 6.44446C2.11874 6.51053 2.08217 6.60014 2.08217 6.69357C2.08217 6.787 2.11874 6.87661 2.18382 6.94268C2.2489 7.00875 2.33717 7.04586 2.4292 7.04586H4.30802C4.37696 6.79973 4.46788 6.56487 4.58078 6.34128H2.4292ZM1.73515 9.15962H4.30802C4.37696 9.40576 4.46788 9.64062 4.58078 9.86421H1.73515C1.27496 9.86421 0.833615 9.67863 0.508212 9.34829C0.182809 9.01795 0 8.56991 0 8.10274V1.76147C0 1.2943 0.182809 0.84626 0.508212 0.515921C0.833615 0.185582 1.27496 0 1.73515 0H7.98167C8.44186 0 8.8832 0.185582 9.2086 0.515921C9.534 0.84626 9.71681 1.2943 9.71681 1.76147V4.65027C9.49492 4.53519 9.26246 4.44245 9.02276 4.37337V1.76147C9.02276 1.48116 8.91307 1.21234 8.71783 1.01414C8.52259 0.815936 8.25778 0.704586 7.98167 0.704586H1.73515C1.45903 0.704586 1.19423 0.815936 0.998985 1.01414C0.803744 1.21234 0.694058 1.48116 0.694058 1.76147V8.10274C0.694058 8.38304 0.803744 8.65187 0.998985 8.85007C1.19423 9.04827 1.45903 9.15962 1.73515 9.15962ZM6.29164 5.94812C6.34162 6.12894 6.3555 6.31807 6.33245 6.50441C6.30941 6.69075 6.2499 6.87054 6.15743 7.0332C6.06497 7.19586 5.94141 7.33812 5.79401 7.45161C5.64662 7.5651 5.47836 7.64754 5.29913 7.69408L4.97917 7.77722C4.956 8.0154 4.95832 8.25542 4.98611 8.49308L5.22903 8.55156C5.41299 8.59582 5.58609 8.67775 5.73775 8.79234C5.8894 8.90692 6.01639 9.05175 6.11095 9.21793C6.2055 9.38412 6.26563 9.56816 6.28763 9.75877C6.30963 9.94938 6.29304 10.1425 6.23889 10.3264L6.15144 10.6245C6.3305 10.7682 6.52368 10.8896 6.73098 10.9887L6.95654 10.7464C7.08639 10.6069 7.24294 10.4958 7.41658 10.4199C7.59023 10.344 7.77731 10.305 7.96635 10.3051C8.1554 10.3052 8.34242 10.3446 8.51596 10.4207C8.6895 10.4968 8.8459 10.6081 8.97556 10.7478L9.20946 11C9.41305 10.9046 9.60322 10.7877 9.77997 10.6491L9.6717 10.2574C9.62171 10.0765 9.60784 9.88741 9.63089 9.70107C9.65393 9.51473 9.71344 9.33495 9.8059 9.17229C9.89837 9.00962 10.0219 8.86736 10.1693 8.75387C10.3167 8.64038 10.485 8.55794 10.6642 8.5114L10.9842 8.42826C11.0074 8.18985 11.0051 7.94959 10.9772 7.7117L10.735 7.65392C10.5509 7.60976 10.3776 7.52786 10.2259 7.41326C10.0741 7.29866 9.94696 7.15378 9.85233 6.9875C9.75769 6.82123 9.69753 6.63707 9.67554 6.44634C9.65355 6.25561 9.67019 6.06233 9.72445 5.87836L9.8119 5.58173C9.63313 5.43775 9.43868 5.31505 9.23236 5.21605L9.00749 5.45843C8.87768 5.59806 8.72112 5.7093 8.54744 5.7853C8.37376 5.8613 8.18661 5.90047 7.99748 5.90041C7.80835 5.90034 7.62123 5.86104 7.4476 5.78492C7.27397 5.70879 7.11749 5.59745 6.98778 5.45773L6.75388 5.20548C6.55142 5.30021 6.36006 5.41767 6.18336 5.55566L6.29164 5.94812ZM7.98167 8.80733C7.79759 8.80733 7.62106 8.7331 7.4909 8.60096C7.36073 8.46882 7.28761 8.28961 7.28761 8.10274C7.28761 7.91587 7.36073 7.73666 7.4909 7.60452C7.62106 7.47239 7.79759 7.39816 7.98167 7.39816C8.16574 7.39816 8.34228 7.47239 8.47244 7.60452C8.6026 7.73666 8.67573 7.91587 8.67573 8.10274C8.67573 8.28961 8.6026 8.46882 8.47244 8.60096C8.34228 8.7331 8.16574 8.80733 7.98167 8.80733Z" fill="#828282"/>
</svg>
