<svg width="15" height="15" viewBox="0 0 15 15" fill="none" xmlns="http://www.w3.org/2000/svg">
<path d="M7.21875 0C6.85644 0 6.5 0.4 6.5 0.96875C6.5 1.5375 6.85644 1.9375 7.21875 1.9375C7.58106 1.9375 7.9375 1.5375 7.9375 0.96875C7.9375 0.4 7.58106 0 7.21875 0ZM3.97028 0.0929688L3.46722 0.344531C3.93884 1.28781 5.07253 2.11984 6.03559 2.67084L6.47919 8.4375H6.9375V5.21875H7.5V8.4375H7.95831L8.40191 2.67084C9.36497 2.11984 10.4987 1.28781 10.9703 0.344531L10.4672 0.0929688C9.84503 1.02734 9.06437 1.62884 8.23803 1.89828C8.00972 2.25875 7.64844 2.5 7.21875 2.5C6.78906 2.5 6.42781 2.25875 6.19947 1.89825C5.37313 1.62888 4.59247 1.02734 3.97028 0.0929688ZM4.5 9V12H0V14.4375H14.4375V13.5H9.9375V9H4.5Z" fill="#530000"/>
</svg>
