<svg width="16" height="19" viewBox="0 0 16 19" fill="none" xmlns="http://www.w3.org/2000/svg">
<path d="M1.84615 8.23333V7.6H1.23077V8.23333H1.84615ZM6.76923 8.23333V7.6H6.15385V8.23333H6.76923ZM6.76923 13.3H6.15385V13.9333H6.76923V13.3ZM15.3846 4.43333H16V4.17113L15.8203 3.98493L15.3846 4.43333ZM11.6923 0.633333L12.128 0.184933L11.9471 0H11.6923V0.633333ZM1.84615 8.86667H3.07692V7.6H1.84615V8.86667ZM2.46154 13.9333V10.7667H1.23077V13.9333H2.46154ZM2.46154 10.7667V8.23333H1.23077V10.7667H2.46154ZM3.07692 10.1333H1.84615V11.4H3.07692V10.1333ZM3.69231 9.5C3.69231 9.66797 3.62747 9.82906 3.51207 9.94783C3.39666 10.0666 3.24013 10.1333 3.07692 10.1333V11.4C3.56655 11.4 4.03613 11.1998 4.38235 10.8435C4.72857 10.4872 4.92308 10.0039 4.92308 9.5H3.69231ZM3.07692 8.86667C3.24013 8.86667 3.39666 8.93339 3.51207 9.05217C3.62747 9.17094 3.69231 9.33203 3.69231 9.5H4.92308C4.92308 8.99609 4.72857 8.51282 4.38235 8.1565C4.03613 7.80018 3.56655 7.6 3.07692 7.6V8.86667ZM6.15385 8.23333V13.3H7.38462V8.23333H6.15385ZM6.76923 13.9333H8V12.6667H6.76923V13.9333ZM9.84615 12.0333V9.5H8.61539V12.0333H9.84615ZM8 7.6H6.76923V8.86667H8V7.6ZM9.84615 9.5C9.84615 8.99609 9.65165 8.51282 9.30543 8.1565C8.95921 7.80018 8.48963 7.6 8 7.6V8.86667C8.16321 8.86667 8.31974 8.93339 8.43514 9.05217C8.55055 9.17094 8.61539 9.33203 8.61539 9.5H9.84615ZM8 13.9333C8.48963 13.9333 8.95921 13.7332 9.30543 13.3768C9.65165 13.0205 9.84615 12.5372 9.84615 12.0333H8.61539C8.61539 12.2013 8.55055 12.3624 8.43514 12.4812C8.31974 12.5999 8.16321 12.6667 8 12.6667V13.9333ZM11.0769 7.6V13.9333H12.3077V7.6H11.0769ZM11.6923 8.86667H14.7692V7.6H11.6923V8.86667ZM11.6923 11.4H13.5385V10.1333H11.6923V11.4ZM1.23077 6.33333V1.9H0V6.33333H1.23077ZM14.7692 4.43333V6.33333H16V4.43333H14.7692ZM1.84615 1.26667H11.6923V0H1.84615V1.26667ZM11.2566 1.08173L14.9489 4.88173L15.8203 3.98493L12.128 0.184933L11.2566 1.08173ZM1.23077 1.9C1.23077 1.73203 1.2956 1.57094 1.41101 1.45217C1.52642 1.33339 1.68294 1.26667 1.84615 1.26667V0C1.35652 0 0.886947 0.200178 0.540726 0.556497C0.194505 0.912816 0 1.39609 0 1.9H1.23077ZM0 15.2V17.1H1.23077V15.2H0ZM1.84615 19H14.1538V17.7333H1.84615V19ZM16 17.1V15.2H14.7692V17.1H16ZM14.1538 19C14.6435 19 15.1131 18.7998 15.4593 18.4435C15.8055 18.0872 16 17.6039 16 17.1H14.7692C14.7692 17.268 14.7044 17.4291 14.589 17.5478C14.4736 17.6666 14.3171 17.7333 14.1538 17.7333V19ZM0 17.1C0 17.6039 0.194505 18.0872 0.540726 18.4435C0.886947 18.7998 1.35652 19 1.84615 19V17.7333C1.68294 17.7333 1.52642 17.6666 1.41101 17.5478C1.2956 17.4291 1.23077 17.268 1.23077 17.1H0Z" fill="#B81E1E"/>
</svg>
